<?xml version="1.0" encoding="UTF-8" standalone="no"?>
<svg width="211px" height="75px" viewBox="0 0 211 75" version="1.1" xmlns="http://www.w3.org/2000/svg" xmlns:xlink="http://www.w3.org/1999/xlink">
    <!-- Generator: Sketch 3.7.2 (28276) - http://www.bohemiancoding.com/sketch -->
    <title>Artboard 1</title>
    <desc>Created with Sketch.</desc>
    <defs></defs>
    <g id="Page-1" stroke="none" stroke-width="1" fill="none" fill-rule="evenodd">
        <g id="Artboard-1">
            <g id="Logo-1-Copy">
                <polygon id="Fill-19" fill="#64F4A6" points="41.3161 21.3979 20.8371 41.8769 0.3591 21.3979 20.8371 0.9189"></polygon>
                <polygon id="Fill-21" fill="#3AC2D1" points="61.7949 41.8766 41.3159 62.3556 20.8379 41.8766 41.3159 21.3976"></polygon>
                <polygon id="Fill-23" fill="#108EFF" points="82.2737 21.3979 61.7947 41.8769 41.3157 21.3979 61.7947 0.9189"></polygon>
                <path d="M65.364,49.042 L59.539,54.867 C66.852,56.673 70.349,59.133 70.349,60.2 C70.349,62.014 60.187,67.458 41.316,67.458 C22.445,67.458 12.284,62.014 12.284,60.2 C12.284,59.146 15.698,56.733 23.16,54.934 L17.34,49.114 C9.995,51.378 5.026,55.167 5.026,60.2 C5.026,69.998 23.897,74.716 41.316,74.716 C58.736,74.716 77.607,69.998 77.607,60.2 C77.607,55.115 72.539,51.298 65.364,49.042" id="Fill-25" fill="#FFFFFF"></path>
                <polygon id="Fill-27" fill="#FFFFFF" points="119.8939 51.7879 109.0769 51.7879 94.9069 17.5389 106.0719 17.5389 114.4849 38.6189 122.9479 17.5389 134.0639 17.5389"></polygon>
                <path d="M159.6047,34.5626 C159.6047,30.1066 156.2497,26.2506 151.4927,26.2506 C146.7367,26.2506 143.3817,30.1066 143.3817,34.5626 C143.3817,39.0196 146.7367,42.8756 151.4927,42.8756 C156.2497,42.8756 159.6047,39.0196 159.6047,34.5626 M169.8687,34.5626 C169.8687,44.6276 162.2587,52.3386 151.4927,52.3386 C140.7277,52.3386 133.1147,44.6276 133.1147,34.5626 C133.1147,24.4986 140.7277,16.7876 151.4927,16.7876 C162.2587,16.7876 169.8687,24.4986 169.8687,34.5626" id="Fill-29" fill="#FFFFFF"></path>
                <path d="M199.7653,34.5626 C199.7653,30.1066 196.4103,26.2506 191.6533,26.2506 C186.8973,26.2506 183.5423,30.1066 183.5423,34.5626 C183.5423,39.0196 186.8973,42.8756 191.6533,42.8756 C196.4103,42.8756 199.7653,39.0196 199.7653,34.5626 M210.0313,34.5626 C210.0313,44.6276 202.4193,52.3386 191.6533,52.3386 C180.8883,52.3386 173.2783,44.6276 173.2783,34.5626 C173.2783,24.4986 180.8883,16.7876 191.6533,16.7876 C202.4193,16.7876 210.0313,24.4986 210.0313,34.5626" id="Fill-31" fill="#FFFFFF"></path>
            </g>
        </g>
    </g>
</svg>