<?xml version="1.0" encoding="UTF-8" standalone="no"?>
<svg width="211px" height="75px" viewBox="0 0 211 75" version="1.1" xmlns="http://www.w3.org/2000/svg" xmlns:xlink="http://www.w3.org/1999/xlink">
    <!-- Generator: Sketch 3.7.2 (28276) - http://www.bohemiancoding.com/sketch -->
    <title>Artboard 1</title>
    <desc>Created with Sketch.</desc>
    <defs></defs>
    <g id="Page-1" stroke="none" stroke-width="1" fill="none" fill-rule="evenodd">
        <g id="Artboard-1">
            <g id="Logo-2-Copy">
                <polygon id="Fill-33" fill="#64F4A6" points="41.7065 21.3979 21.2275 41.8769 0.7485 21.3979 21.2275 0.9189"></polygon>
                <polygon id="Fill-35" fill="#3AC2D1" points="62.1853 41.8766 41.7063 62.3556 21.2273 41.8766 41.7063 21.3976"></polygon>
                <polygon id="Fill-37" fill="#108EFF" points="82.6641 21.3979 62.1851 41.8769 41.7061 21.3979 62.1851 0.9189"></polygon>
                <path d="M65.7543,49.042 L59.9293,54.867 C67.2433,56.673 70.7393,59.133 70.7393,60.2 C70.7393,62.014 60.5773,67.458 41.7063,67.458 C22.8353,67.458 12.6743,62.014 12.6743,60.2 C12.6743,59.146 16.0883,56.733 23.5503,54.934 L17.7303,49.114 C10.3853,51.378 5.4163,55.167 5.4163,60.2 C5.4163,69.998 24.2873,74.716 41.7063,74.716 C59.1263,74.716 77.9973,69.998 77.9973,60.2 C77.9973,55.115 72.9293,51.298 65.7543,49.042" id="Fill-39" fill="#CCCCCC"></path>
                <polygon id="Fill-41" fill="#09133D" points="120.2838 51.7879 109.4678 51.7879 95.2978 17.5389 106.4638 17.5389 114.8768 38.6189 123.3388 17.5389 134.4538 17.5389"></polygon>
                <path d="M159.9946,34.5626 C159.9946,30.1066 156.6406,26.2506 151.8826,26.2506 C147.1266,26.2506 143.7716,30.1066 143.7716,34.5626 C143.7716,39.0196 147.1266,42.8756 151.8826,42.8756 C156.6406,42.8756 159.9946,39.0196 159.9946,34.5626 M170.2596,34.5626 C170.2596,44.6276 162.6486,52.3386 151.8826,52.3386 C141.1176,52.3386 133.5066,44.6276 133.5066,34.5626 C133.5066,24.4986 141.1176,16.7876 151.8826,16.7876 C162.6486,16.7876 170.2596,24.4986 170.2596,34.5626" id="Fill-43" fill="#09133D"></path>
                <path d="M200.1564,34.5626 C200.1564,30.1066 196.8014,26.2506 192.0444,26.2506 C187.2884,26.2506 183.9334,30.1066 183.9334,34.5626 C183.9334,39.0196 187.2884,42.8756 192.0444,42.8756 C196.8014,42.8756 200.1564,39.0196 200.1564,34.5626 M210.4214,34.5626 C210.4214,44.6276 202.8104,52.3386 192.0444,52.3386 C181.2794,52.3386 173.6684,44.6276 173.6684,34.5626 C173.6684,24.4986 181.2794,16.7876 192.0444,16.7876 C202.8104,16.7876 210.4214,24.4986 210.4214,34.5626" id="Fill-45" fill="#09133D"></path>
            </g>
        </g>
    </g>
</svg>
