<svg xmlns="http://www.w3.org/2000/svg" xmlns:xlink="http://www.w3.org/1999/xlink" x="0px" y="0px" width="48px" height="48px" viewBox="0 0 48 48"><g  transform="translate(0, 0)">
<path data-color="color-2" fill="none" stroke="#038cf2" stroke-width="2" stroke-linecap="square" stroke-miterlimit="10" d="M19,33&#10;&#9;c-3.9,0-7-3.1-7-7h24c0,3.9-3.1,7-7,7" stroke-linejoin="miter"/>
<path data-color="color-2" fill="none" stroke="#038cf2" stroke-width="2" stroke-linecap="square" stroke-miterlimit="10" d="M36,18&#10;&#9;c0-2.2-1.8-4-4-4c-2.2,0-4,1.8-4,4" stroke-linejoin="miter"/>
<path data-color="color-2" fill="none" stroke="#038cf2" stroke-width="2" stroke-linecap="square" stroke-miterlimit="10" d="M20,18&#10;&#9;c0-2.2-1.8-4-4-4s-4,1.8-4,4" stroke-linejoin="miter"/>
<path data-color="color-2" fill="none" stroke="#038cf2" stroke-width="2" stroke-linecap="square" stroke-miterlimit="10" d="M29,34&#10;&#9;c0,2.8-2.2,5-5,5s-5-2.2-5-5v-8h10V34z" stroke-linejoin="miter"/>
<circle fill="none" stroke="#273241" stroke-width="2" stroke-linecap="square" stroke-miterlimit="10" cx="24" cy="24" r="22" stroke-linejoin="miter"/>
</g></svg>