<svg width="48" height="48" xmlns="http://www.w3.org/2000/svg"><g stroke-width="2" fill="none" fill-rule="evenodd"><path d="M47 24c0 12.703-10.297 23-23 23S1 36.703 1 24 11.297 1 24 1s23 10.297 23 23z" stroke="#00A2F2" stroke-linecap="round"/><path d="M31 24a7 7 0 1 1-14 0 7 7 0 0 1 14 0z" stroke="#344252" stroke-linecap="square"/><path d="M31 36.127A13.943 13.943 0 0 1 24 38c-7.732 0-14-6.268-14-14 0-7.733 6.268-14 14-14 19 0 18 21 10 21-3 0-3-2-3-3V18" stroke="#344252" stroke-linecap="square"/></g></svg>