<?xml version="1.0" encoding="UTF-8" standalone="no"?>
<svg width="48px" height="48px" viewBox="0 0 48 48" version="1.1" xmlns="http://www.w3.org/2000/svg" xmlns:xlink="http://www.w3.org/1999/xlink">
    <!-- Generator: Sketch 3.6.1 (26313) - http://www.bohemiancoding.com/sketch -->
    <title>at</title>
    <desc>Created with Sketch.</desc>
    <defs></defs>
    <g id="Page-1" stroke="none" stroke-width="1" fill="none" fill-rule="evenodd">
        <g id="at" stroke-width="2">
            <g transform="translate(1.000000, 1.000000)">
                <path d="M46,23 C46,35.703 35.703,46 23,46 C10.297,46 0,35.703 0,23 C0,10.297 10.297,0 23,0 C35.703,0 46,10.297 46,23 L46,23 Z" id="Stroke-1" stroke="#00A2F2" stroke-linecap="round"></path>
                <path d="M30,23 C30,26.866 26.866,30 23,30 C19.133,30 16,26.866 16,23 C16,19.134 19.133,16 23,16 C26.866,16 30,19.134 30,23 L30,23 Z" id="Stroke-3" stroke="#344252" stroke-linecap="square"></path>
                <path d="M30,35.1274 C27.94,36.3184 25.549,37.0004 23,37.0004 C15.268,37.0004 9,30.7324 9,23.0004 C9,15.2674 15.268,9.0004 23,9.0004 C42,9.0004 41,30.0004 33,30.0004 C30,30.0004 30,28.0004 30,27.0004 L30,17.0004" id="Stroke-5" stroke="#344252" stroke-linecap="square"></path>
            </g>
        </g>
    </g>
</svg>