<svg xmlns="http://www.w3.org/2000/svg" width="48" height="48"><g fill="none" stroke-width="2" stroke-miterlimit="10"><path data-cap="butt" data-color="color-2" stroke="#038cf2" d="M28.8 11c1.9-2 4.6-3 7.2-3 4.8 0 10 3.7 10 10 0 6.2-10 16-10 16s-1.5-1.5-3.4-3.7M15.4 30.3C13.5 32.5 12 34 12 34S2 24.2 2 18C2 11.7 7.2 8 12 8c2.6 0 5.2 1 7.2 3"/><path stroke="#273241" stroke-linecap="square" d="M36 22c0 7.4-12 18-12 18S12 29.4 12 22c0-7.6 6.2-12 12-12s12 4.4 12 12z"/><circle stroke="#273241" stroke-linecap="square" cx="24" cy="22" r="4"/></g></svg>