<svg xmlns="http://www.w3.org/2000/svg" width="48" height="48"><g fill="none" stroke-width="2" stroke-miterlimit="10"><path data-cap="butt" stroke="#344252" d="M26.7 24c-2.6-.1-4.7-2.3-4.7-5 0 2.8-2.2 5-5 5s-5-2.2-5-5c0 2.8-2.2 5-5 5s-5-2.1-5-6l8-16h24l8 16c0 .7-.1 1.3-.2 1.8M8 24v18h26"/><path data-color="color-2" stroke="#00a2f2" stroke-linecap="square" d="M46 28c0 6.2-10 16.2-10 16.2S26 34.2 26 28c0-6.4 5.2-10 10-10s10 3.6 10 10z"/><circle data-color="color-2" stroke="#00a2f2" stroke-linecap="square" cx="36" cy="28" r="2"/></g></svg>