<svg width="211" height="75" xmlns="http://www.w3.org/2000/svg"><g fill="none" fill-rule="evenodd"><path fill="#64F4A6" d="M41.316 21.398L20.837 41.877.36 21.397 20.837.92z"/><path fill="#3AC2D1" d="M61.795 41.877l-20.48 20.479-20.477-20.48 20.478-20.478z"/><path fill="#108EFF" d="M82.274 21.398l-20.48 20.479-20.478-20.48L61.795.92z"/><path d="M65.364 49.042l-5.825 5.825c7.313 1.806 10.81 4.266 10.81 5.333 0 1.814-10.162 7.258-29.033 7.258-18.871 0-29.032-5.444-29.032-7.258 0-1.054 3.414-3.467 10.876-5.266l-5.82-5.82C9.995 51.378 5.026 55.167 5.026 60.2c0 9.798 18.871 14.516 36.29 14.516 17.42 0 36.291-4.718 36.291-14.516 0-5.085-5.068-8.902-12.243-11.158M119.894 51.788h-10.817l-14.17-34.25h11.165l8.413 21.08 8.463-21.08h11.116zM159.605 34.563c0-4.456-3.355-8.312-8.112-8.312-4.756 0-8.111 3.856-8.111 8.312 0 4.457 3.355 8.313 8.11 8.313 4.758 0 8.113-3.856 8.113-8.313m10.264 0c0 10.065-7.61 17.776-18.376 17.776-10.765 0-18.378-7.711-18.378-17.776 0-10.064 7.613-17.775 18.378-17.775 10.766 0 18.376 7.71 18.376 17.775M199.765 34.563c0-4.456-3.355-8.312-8.112-8.312-4.756 0-8.11 3.856-8.11 8.312 0 4.457 3.354 8.313 8.11 8.313 4.757 0 8.112-3.856 8.112-8.313m10.266 0c0 10.065-7.612 17.776-18.378 17.776-10.765 0-18.375-7.711-18.375-17.776 0-10.064 7.61-17.775 18.375-17.775 10.766 0 18.378 7.71 18.378 17.775" fill="#FFF"/></g></svg>