<svg xmlns="http://www.w3.org/2000/svg" xmlns:xlink="http://www.w3.org/1999/xlink" x="0px" y="0px" width="48px" height="48px" viewBox="0 0 48 48"><g  transform="translate(0, 0)">
<path data-cap="butt" fill="none" stroke="#344252" stroke-width="2" stroke-miterlimit="10" d="M26.7,24c-2.6-0.1-4.7-2.3-4.7-5&#10;&#9;c0,2.8-2.2,5-5,5s-5-2.2-5-5c0,2.8-2.2,5-5,5s-5-2.1-5-6l8-16h24l8,16c0,0.7-0.1,1.3-0.2,1.8"/>
<polyline data-cap="butt" fill="none" stroke="#344252" stroke-width="2" stroke-miterlimit="10" points="8,24 8,42 34,42 "/>
<path data-color="color-2" fill="none" stroke="#00a2f2" stroke-width="2" stroke-linecap="square" stroke-miterlimit="10" d="M46,28&#10;&#9;c0,6.2-10,16.2-10,16.2S26,34.2,26,28c0-6.4,5.2-10,10-10S46,21.6,46,28z"/>
<circle data-color="color-2" fill="none" stroke="#00a2f2" stroke-width="2" stroke-linecap="square" stroke-miterlimit="10" cx="36" cy="28" r="2"/>
</g></svg>