<?xml version="1.0" encoding="UTF-8" standalone="no"?>
<svg width="227px" height="71px" viewBox="0 0 227 71" version="1.1" xmlns="http://www.w3.org/2000/svg" xmlns:xlink="http://www.w3.org/1999/xlink" xmlns:sketch="http://www.bohemiancoding.com/sketch/ns">
    <!-- Generator: Sketch 3.4.4 (17249) - http://www.bohemiancoding.com/sketch -->
    <title>outline</title>
    <desc>Created with Sketch.</desc>
    <defs>
        <linearGradient x1="50%" y1="0%" x2="50%" y2="100%" id="linearGradient-1">
            <stop stop-color="#4A90E2" offset="0%"></stop>
            <stop stop-color="#5B64CF" offset="100%"></stop>
        </linearGradient>
        <filter x="-50%" y="-50%" width="200%" height="200%" filterUnits="objectBoundingBox" id="filter-2">
            <feGaussianBlur stdDeviation="6" in="SourceGraphic" result="blur"></feGaussianBlur>
        </filter>
        <path d="M21.562511,46.8363636 C20.3334271,46.8363636 19.2214155,46.6749381 18.2264428,46.3520822 C17.2314701,46.0292263 16.3828297,45.5449498 15.680496,44.899238 C14.9781623,44.2535262 14.4367883,43.4363095 14.0563575,42.4475634 C13.6759268,41.4588172 13.4857143,40.2985713 13.4857143,38.9667907 L13.4857143,26.1333333 L19.7188943,26.1333333 L19.7188943,38.6943824 C19.7188943,39.4006297 19.8603344,39.9403963 20.1432188,40.3136984 C20.4261032,40.6870005 20.8991959,40.8736488 21.562511,40.8736488 C22.2258261,40.8736488 22.6989188,40.6870005 22.9818032,40.3136984 C23.2646875,39.9403963 23.4061276,39.4006297 23.4061276,38.6943824 L23.4061276,26.1333333 L29.6685714,26.1333333 L29.6685714,38.9667907 C29.6685714,40.2985713 29.4783589,41.4588172 29.0979282,42.4475634 C28.7174975,43.4363095 28.1712461,44.2535262 27.4591578,44.899238 C26.7470695,45.5449498 25.8935519,46.0292263 24.8985792,46.3520822 C23.9036065,46.6749381 22.7915949,46.8363636 21.562511,46.8363636 L21.562511,46.8363636 Z M47.2,33.8880015 C47.2,35.2923972 46.966146,36.488151 46.498431,37.4752987 C46.0307161,38.4624464 45.3924896,39.2613117 44.5837325,39.8719186 C43.7749753,40.4825254 42.8298155,40.9302971 41.7482246,41.2152469 C40.6666337,41.5001968 39.5022358,41.6426696 38.2549959,41.6426696 L38.2549959,46.4969697 L32.0285714,46.4969697 L32.0285714,26.1333333 L38.2549959,26.1333333 C39.5022358,26.1333333 40.6666337,26.2758061 41.7482246,26.560756 C42.8298155,26.8457058 43.7749753,27.2934775 44.5837325,27.9040843 C45.3924896,28.5146912 46.0307161,29.3135565 46.498431,30.3007042 C46.966146,31.2878519 47.2,32.4836057 47.2,33.8880015 L47.2,33.8880015 Z M38.0971429,35.9757576 L38.372987,35.9757576 C39.2311731,35.9757576 39.8492622,35.7819839 40.2272727,35.3944308 C40.6052833,35.0068777 40.7942857,34.4653051 40.7942857,33.769697 C40.7942857,33.0740888 40.6052833,32.5325163 40.2272727,32.1449631 C39.8492622,31.75741 39.2311731,31.5636364 38.372987,31.5636364 L38.0971429,31.5636364 L38.0971429,35.9757576 Z" id="path-3"></path>
    </defs>
    <g id="Page-1" stroke="none" stroke-width="1" fill="none" fill-rule="evenodd" sketch:type="MSPage">
        <g id="outline" sketch:type="MSLayerGroup" transform="translate(7.000000, 4.000000)">
            <g id="DHL-Shape-+-overlay-+-UP-no-shadow">
                <path d="M29.5,0 C44.25,-1.57942327e-15 65.9640053,39.4096326 59,51.5878788 C52.0359947,63.766125 7.78599466,65.203572 0,51.5878788 C-7.78599466,37.9721856 14.75,1.57942327e-15 29.5,0 Z" id="DHL-Shape" fill="url(#linearGradient-1)" sketch:type="MSShapeGroup"></path>
                <path d="M29.4339625,6.10909091 C41.4781853,6.10909091 59.2089187,38.2005423 53.5224081,48.1173462 C47.8358975,58.0341501 11.7032291,59.20467 5.345517,48.1173462 C-1.01219516,37.0300224 17.3897398,6.10909091 29.4339625,6.10909091 Z" id="overlay" fill-opacity="0.08" fill="#FFFFFF" filter="url(#filter-2)" sketch:type="MSShapeGroup"></path>
                <g id="UP-no-shadow-Copy">
                    <use fill="none" sketch:type="MSShapeGroup" xlink:href="#path-3"></use>
                    <use fill="#FFFFFF" fill-rule="evenodd" xlink:href="#path-3"></use>
                </g>
            </g>
            <path d="M91.1505098,41.375 C91.1505098,40.6113243 90.9633372,39.9936547 90.5889864,39.5219727 C90.2146356,39.0502906 89.7055261,38.664715 89.0616426,38.3652344 C88.4177592,38.0657537 87.695273,37.8224293 86.8941622,37.6352539 C86.0930514,37.4480785 85.2507747,37.2646493 84.3673067,37.0849609 C83.1993321,36.8304024 82.0837834,36.5271827 81.020627,36.175293 C79.9574707,35.8234032 79.0216076,35.3367544 78.2130098,34.715332 C77.404412,34.0939097 76.7605383,33.3040412 76.2813692,32.3457031 C75.8022001,31.387365 75.5626192,30.1894603 75.5626192,28.7519531 C75.5626192,27.1647056 75.8396347,25.7833718 76.3936739,24.6079102 C76.9477131,23.4324485 77.700147,22.459151 78.6509981,21.6879883 C79.6018492,20.9168256 80.717398,20.3403339 81.9976778,19.9584961 C83.2779576,19.5766582 84.7191867,19.3857422 86.3214083,19.3857422 C87.9236298,19.3857422 89.5333142,19.5429672 91.1505098,19.8574219 C92.7677054,20.1718766 94.1602696,20.5761694 95.3282442,21.0703125 L95.3282442,25.7871094 C93.7709448,25.173174 92.2773073,24.7277032 90.8472872,24.4506836 C89.417267,24.173664 88.0733677,24.0351562 86.8155489,24.0351562 C85.0036909,24.0351562 83.6073832,24.36458 82.6265841,25.0234375 C81.6457849,25.682295 81.1553926,26.6705663 81.1553926,27.9882812 C81.1553926,28.7519569 81.3163611,29.3808569 81.6383028,29.875 C81.9602445,30.3691431 82.3982284,30.7771794 82.9522676,31.0991211 C83.5063069,31.4210628 84.1426937,31.679361 84.8614473,31.8740234 C85.5802009,32.0686859 86.3438652,32.2483716 87.152463,32.4130859 C88.4252558,32.6826185 89.6418777,32.9933251 90.8023653,33.3452148 C91.9628529,33.6971046 92.9923022,34.1874969 93.8907442,34.8164062 C94.7891862,35.4453156 95.5004421,36.2651317 96.0245333,37.2758789 C96.5486244,38.2866261 96.8106661,39.5781171 96.8106661,41.1503906 C96.8106661,42.7675862 96.5111899,44.1676373 95.9122286,45.3505859 C95.3132673,46.5335346 94.4635036,47.5105756 93.3629122,48.2817383 C92.2623207,49.052901 90.9259083,49.6256492 89.3536348,50 C87.7813613,50.3743508 86.0593734,50.5615234 84.1876192,50.5615234 C82.5554496,50.5615234 80.9495086,50.400555 79.3697481,50.0786133 C77.7899876,49.7566716 76.4760359,49.3037139 75.4278536,48.7197266 L75.4278536,44.0703125 C76.9102829,44.7141959 78.3552554,45.1821274 79.7628145,45.4741211 C81.1703736,45.7661147 82.6228331,45.9121094 84.1202364,45.9121094 C84.9887303,45.9121094 85.8422374,45.8409838 86.6807833,45.6987305 C87.5193291,45.5564772 88.271763,45.3131528 88.9381075,44.96875 C89.604452,44.6243472 90.1397656,44.1564157 90.5440645,43.5649414 C90.9483634,42.9734671 91.1505098,42.2434939 91.1505098,41.375 L91.1505098,41.375 Z M123.932997,34.9736328 C123.932997,33.1468008 123.70839,31.5483467 123.259169,30.1782227 C122.809948,28.8080986 122.188535,27.6663457 121.394911,26.7529297 C120.601287,25.8395137 119.657937,25.1582054 118.564833,24.7089844 C117.471728,24.2597634 116.273824,24.0351562 114.971083,24.0351562 C113.668342,24.0351562 112.470437,24.2597634 111.377333,24.7089844 C110.284228,25.1582054 109.340878,25.8395137 108.547255,26.7529297 C107.753631,27.6663457 107.132218,28.8080986 106.682997,30.1782227 C106.233776,31.5483467 106.009169,33.1468008 106.009169,34.9736328 C106.009169,36.8004649 106.233776,38.3989189 106.682997,39.769043 C107.132218,41.139167 107.753631,42.2771765 108.547255,43.1831055 C109.340878,44.0890345 110.284228,44.7703428 111.377333,45.2270508 C112.470437,45.6837588 113.668342,45.9121094 114.971083,45.9121094 C116.273824,45.9121094 117.471728,45.6837588 118.564833,45.2270508 C119.657937,44.7703428 120.601287,44.0890345 121.394911,43.1831055 C122.188535,42.2771765 122.809948,41.139167 123.259169,39.769043 C123.70839,38.3989189 123.932997,36.8004649 123.932997,34.9736328 L123.932997,34.9736328 Z M129.615614,34.9736328 C129.615614,37.2646599 129.289934,39.3647365 128.638563,41.2739258 C127.987193,43.183115 127.036356,44.8264905 125.786024,46.2041016 C124.535692,47.5817126 123.000877,48.6523399 121.181532,49.4160156 C119.362187,50.1796913 117.292058,50.5615234 114.971083,50.5615234 C112.650108,50.5615234 110.579979,50.1796913 108.760634,49.4160156 C106.941289,48.6523399 105.406473,47.5817126 104.156141,46.2041016 C102.90581,44.8264905 101.954973,43.183115 101.303602,41.2739258 C100.652232,39.3647365 100.326552,37.2646599 100.326552,34.9736328 C100.326552,32.6826057 100.652232,30.5825291 101.303602,28.6733398 C101.954973,26.7641506 102.90581,25.1207751 104.156141,23.7431641 C105.406473,22.365553 106.941289,21.2949257 108.760634,20.53125 C110.579979,19.7675743 112.650108,19.3857422 114.971083,19.3857422 C117.292058,19.3857422 119.362187,19.7675743 121.181532,20.53125 C123.000877,21.2949257 124.535692,22.365553 125.786024,23.7431641 C127.036356,25.1207751 127.987193,26.7641506 128.638563,28.6733398 C129.289934,30.5825291 129.615614,32.6826057 129.615614,34.9736328 L129.615614,34.9736328 Z M148.831695,24.0351562 C147.334292,24.0351562 145.952958,24.2822241 144.687652,24.7763672 C143.422346,25.2705103 142.336745,25.9892531 141.430816,26.9326172 C140.524887,27.8759813 139.817374,29.0401949 139.308257,30.425293 C138.79914,31.810391 138.544585,33.3938713 138.544585,35.1757812 C138.544585,36.9427172 138.776679,38.4962498 139.240875,39.8364258 C139.70507,41.1766018 140.371404,42.2958939 141.239898,43.1943359 C142.108392,44.0927779 143.167789,44.7703428 144.418121,45.2270508 C145.668452,45.6837588 147.087221,45.9121094 148.674468,45.9121094 C149.812495,45.9121094 150.972965,45.8222665 152.155914,45.6425781 C153.338862,45.4628897 154.446924,45.2008481 155.480132,44.8564453 L155.480132,49.5957031 C154.43195,49.8951838 153.301427,50.1310213 152.088531,50.3032227 C150.875634,50.475424 149.617834,50.5615234 148.315093,50.5615234 C145.769508,50.5615234 143.530923,50.1984086 141.599273,49.472168 C139.667623,48.7459274 138.054195,47.7202215 136.758941,46.3950195 C135.463687,45.0698176 134.49039,43.4825939 133.839019,41.6333008 C133.187649,39.7840077 132.861968,37.7438263 132.861968,35.5126953 C132.861968,33.2216682 133.210109,31.0953874 133.906402,29.1337891 C134.602694,27.1721907 135.60594,25.4726634 136.916167,24.0351562 C138.226395,22.5976491 139.866027,21.4671265 141.835113,20.6435547 C143.804198,19.8199829 146.031552,19.4007162 148.517242,19.3857422 C149.790035,19.3857422 150.995426,19.4718416 152.133453,19.644043 C153.271479,19.8162444 154.297185,20.0595687 155.210601,20.3740234 L155.210601,25.0458984 C154.012678,24.6715476 152.89713,24.409506 151.863921,24.2597656 C150.830713,24.1100253 149.819981,24.0351562 148.831695,24.0351562 L148.831695,24.0351562 Z M159.849533,50 L159.849533,19.9472656 L165.352463,19.9472656 L165.352463,50 L159.849533,50 Z M188.499208,42.3408203 L177.178895,42.3408203 L174.236513,50 L168.374208,50 L180.300966,19.9472656 L185.332216,19.9472656 L197.258974,50 L191.441591,50 L188.499208,42.3408203 Z M182.79413,27.1796875 C181.745948,30.3242345 180.810084,32.9521379 179.986513,35.0634766 L178.95331,37.7363281 L186.724794,37.7363281 L185.691591,35.0634766 C184.868019,32.9371638 183.932156,30.3092604 182.883974,27.1796875 L182.79413,27.1796875 Z M205.783648,19.9472656 L205.783648,45.3955078 L219.844195,45.3955078 L219.844195,50 L200.280718,50 L200.280718,19.9472656 L205.783648,19.9472656 Z" id="SOCIAL" fill-opacity="0.658203125" fill="#000000" sketch:type="MSShapeGroup"></path>
        </g>
    </g>
</svg>