<?xml version="1.0" encoding="UTF-8" standalone="no"?>
<svg width="279px" height="71px" viewBox="0 0 279 71" version="1.1" xmlns="http://www.w3.org/2000/svg" xmlns:xlink="http://www.w3.org/1999/xlink" xmlns:sketch="http://www.bohemiancoding.com/sketch/ns">
    <!-- Generator: Sketch 3.4.1 (15681) - http://www.bohemiancoding.com/sketch -->
    <title>ROUND + Logo - 300 x 300 - white bg</title>
    <desc>Created with Sketch.</desc>
    <defs>
        <linearGradient x1="50%" y1="0%" x2="50%" y2="100%" id="linearGradient-1">
            <stop stop-color="#4A90E2" offset="0%"></stop>
            <stop stop-color="#5B64CF" offset="100%"></stop>
        </linearGradient>
        <filter x="-50%" y="-50%" width="200%" height="200%" filterUnits="objectBoundingBox" id="filter-2">
            <feGaussianBlur stdDeviation="6" in="SourceGraphic" result="blur"></feGaussianBlur>
        </filter>
        <path d="M21.562511,46.8363636 C20.3334271,46.8363636 19.2214155,46.6749381 18.2264428,46.3520822 C17.2314701,46.0292263 16.3828297,45.5449498 15.680496,44.899238 C14.9781623,44.2535262 14.4367883,43.4363095 14.0563575,42.4475634 C13.6759268,41.4588172 13.4857143,40.2985713 13.4857143,38.9667907 L13.4857143,26.1333333 L19.7188943,26.1333333 L19.7188943,38.6943824 C19.7188943,39.4006297 19.8603344,39.9403963 20.1432188,40.3136984 C20.4261032,40.6870005 20.8991959,40.8736488 21.562511,40.8736488 C22.2258261,40.8736488 22.6989188,40.6870005 22.9818032,40.3136984 C23.2646875,39.9403963 23.4061276,39.4006297 23.4061276,38.6943824 L23.4061276,26.1333333 L29.6685714,26.1333333 L29.6685714,38.9667907 C29.6685714,40.2985713 29.4783589,41.4588172 29.0979282,42.4475634 C28.7174975,43.4363095 28.1712461,44.2535262 27.4591578,44.899238 C26.7470695,45.5449498 25.8935519,46.0292263 24.8985792,46.3520822 C23.9036065,46.6749381 22.7915949,46.8363636 21.562511,46.8363636 L21.562511,46.8363636 Z M47.2,33.8880015 C47.2,35.2923972 46.966146,36.488151 46.498431,37.4752987 C46.0307161,38.4624464 45.3924896,39.2613117 44.5837325,39.8719186 C43.7749753,40.4825254 42.8298155,40.9302971 41.7482246,41.2152469 C40.6666337,41.5001968 39.5022358,41.6426696 38.2549959,41.6426696 L38.2549959,46.4969697 L32.0285714,46.4969697 L32.0285714,26.1333333 L38.2549959,26.1333333 C39.5022358,26.1333333 40.6666337,26.2758061 41.7482246,26.560756 C42.8298155,26.8457058 43.7749753,27.2934775 44.5837325,27.9040843 C45.3924896,28.5146912 46.0307161,29.3135565 46.498431,30.3007042 C46.966146,31.2878519 47.2,32.4836057 47.2,33.8880015 L47.2,33.8880015 Z M38.0971429,35.9757576 L38.372987,35.9757576 C39.2311731,35.9757576 39.8492622,35.7819839 40.2272727,35.3944308 C40.6052833,35.0068777 40.7942857,34.4653051 40.7942857,33.769697 C40.7942857,33.0740888 40.6052833,32.5325163 40.2272727,32.1449631 C39.8492622,31.75741 39.2311731,31.5636364 38.372987,31.5636364 L38.0971429,31.5636364 L38.0971429,35.9757576 Z" id="path-3"></path>
    </defs>
    <g id="Page-1" stroke="none" stroke-width="1" fill="none" fill-rule="evenodd" sketch:type="MSPage">
        <g id="ROUND-+-Logo---300-x-300---white-bg" sketch:type="MSLayerGroup" transform="translate(0.000000, 4.000000)">
            <g id="DHL-Shape-+-overlay-+-UP-no-shadow" transform="translate(214.000000, 0.000000)">
                <path d="M29.5,0 C44.25,-1.57942327e-15 65.9640053,39.4096326 59,51.5878788 C52.0359947,63.766125 7.78599466,65.203572 0,51.5878788 C-7.78599466,37.9721856 14.75,1.57942327e-15 29.5,0 Z" id="DHL-Shape" fill="url(#linearGradient-1)" sketch:type="MSShapeGroup"></path>
                <path d="M29.4339625,6.10909091 C41.4781853,6.10909091 59.2089187,38.2005423 53.5224081,48.1173462 C47.8358975,58.0341501 11.7032291,59.20467 5.345517,48.1173462 C-1.01219516,37.0300224 17.3897398,6.10909091 29.4339625,6.10909091 Z" id="overlay" fill-opacity="0.08" fill="#FFFFFF" filter="url(#filter-2)" sketch:type="MSShapeGroup"></path>
                <g id="UP-no-shadow-Copy">
                    <use fill="none" sketch:type="MSShapeGroup" xlink:href="#path-3"></use>
                    <use fill="#FFFFFF" fill-rule="evenodd" xlink:href="#path-3"></use>
                </g>
            </g>
            <path d="M0.24,11.312 L14.96,11.312 C17.6906803,11.312 20.218655,11.674663 22.544,12.4 C24.869345,13.125337 26.8853248,14.191993 28.592,15.6 C30.2986752,17.008007 31.6319952,18.7466563 32.592,20.816 C33.5520048,22.8853437 34.032,25.2639866 34.032,27.952 C34.032,30.085344 33.7333363,31.8986592 33.136,33.392 C32.5386637,34.8853408 31.877337,36.1226618 31.152,37.104 C30.2986624,38.2133389 29.338672,39.1519962 28.272,39.92 L36.272,54 L20.272,54 L13.872,43.184 L13.872,54 L0.24,54 L0.24,11.312 Z M13.872,32.304 L14.576,32.304 C16.1973414,32.304 17.5733277,31.941337 18.704,31.216 C19.8346723,30.490663 20.4,29.2746752 20.4,27.568 C20.4,25.8613248 19.8346723,24.645337 18.704,23.92 C17.5733277,23.194663 16.1973414,22.832 14.576,22.832 L13.872,22.832 L13.872,32.304 Z M36.272,32.688 C36.272,29.6159846 36.8586608,26.7146803 38.032,23.984 C39.2053392,21.2533197 40.8053232,18.8746768 42.832,16.848 C44.8586768,14.8213232 47.2373197,13.2213392 49.968,12.048 C52.6986803,10.8746608 55.5999846,10.288 58.672,10.288 C61.7440154,10.288 64.6453197,10.8746608 67.376,12.048 C70.1066803,13.2213392 72.4853232,14.8213232 74.512,16.848 C76.5386768,18.8746768 78.1386608,21.2533197 79.312,23.984 C80.4853392,26.7146803 81.072,29.6159846 81.072,32.688 C81.072,35.7600154 80.4853392,38.6613197 79.312,41.392 C78.1386608,44.1226803 76.5386768,46.5013232 74.512,48.528 C72.4853232,50.5546768 70.1066803,52.1546608 67.376,53.328 C64.6453197,54.5013392 61.7440154,55.088 58.672,55.088 C55.5999846,55.088 52.6986803,54.5013392 49.968,53.328 C47.2373197,52.1546608 44.8586768,50.5546768 42.832,48.528 C40.8053232,46.5013232 39.2053392,44.1226803 38.032,41.392 C36.8586608,38.6613197 36.272,35.7600154 36.272,32.688 L36.272,32.688 Z M49.712,32.688 C49.712,33.9253395 49.9466643,35.0879946 50.416,36.176 C50.8853357,37.2640054 51.5253293,38.2133293 52.336,39.024 C53.1466707,39.8346707 54.0959946,40.4746643 55.184,40.944 C56.2720054,41.4133357 57.4346605,41.648 58.672,41.648 C59.9093395,41.648 61.0719946,41.4133357 62.16,40.944 C63.2480054,40.4746643 64.1973293,39.8346707 65.008,39.024 C65.8186707,38.2133293 66.4586643,37.2640054 66.928,36.176 C67.3973357,35.0879946 67.632,33.9253395 67.632,32.688 C67.632,31.4506605 67.3973357,30.2880054 66.928,29.2 C66.4586643,28.1119946 65.8186707,27.1626707 65.008,26.352 C64.1973293,25.5413293 63.2480054,24.9013357 62.16,24.432 C61.0719946,23.9626643 59.9093395,23.728 58.672,23.728 C57.4346605,23.728 56.2720054,23.9626643 55.184,24.432 C54.0959946,24.9013357 53.1466707,25.5413293 52.336,26.352 C51.5253293,27.1626707 50.8853357,28.1119946 50.416,29.2 C49.9466643,30.2880054 49.712,31.4506605 49.712,32.688 L49.712,32.688 Z M102.064,55.088 C99.3759866,55.088 96.9440109,54.7466701 94.768,54.064 C92.5919891,53.3813299 90.7360077,52.3573402 89.2,50.992 C87.6639923,49.6266598 86.4800042,47.8986771 85.648,45.808 C84.8159958,43.7173229 84.4,41.2640141 84.4,38.448 L84.4,11.312 L98.032,11.312 L98.032,37.872 C98.032,39.3653408 98.3413302,40.5066627 98.96,41.296 C99.5786698,42.0853373 100.613326,42.48 102.064,42.48 C103.514674,42.48 104.54933,42.0853373 105.168,41.296 C105.78667,40.5066627 106.096,39.3653408 106.096,37.872 L106.096,11.312 L119.792,11.312 L119.792,38.448 C119.792,41.2640141 119.376004,43.7173229 118.544,45.808 C117.711996,47.8986771 116.517341,49.6266598 114.96,50.992 C113.402659,52.3573402 111.536011,53.3813299 109.36,54.064 C107.183989,54.7466701 104.752013,55.088 102.064,55.088 L102.064,55.088 Z M124.08,11.312 L135.28,11.312 L147.056,27.76 L147.056,11.312 L160.432,11.312 L160.432,54 L149.168,54 L137.456,37.616 L137.456,54 L124.08,54 L124.08,11.312 Z M164.912,54 L164.912,11.312 L176.752,11.312 C180.762687,11.312 184.335984,11.7599955 187.472,12.656 C190.608016,13.5520045 193.253323,14.895991 195.408,16.688 C197.562677,18.480009 199.205328,20.70932 200.336,23.376 C201.466672,26.04268 202.032,29.1253158 202.032,32.624 C202.032,36.1226842 201.466672,39.20532 200.336,41.872 C199.205328,44.53868 197.562677,46.767991 195.408,48.56 C193.253323,50.352009 190.608016,51.7066621 187.472,52.624 C184.335984,53.5413379 180.762687,54 176.752,54 L164.912,54 Z M178.544,41.84 C181.744016,41.84 184.218658,41.0826742 185.968,39.568 C187.717342,38.0533258 188.592,35.7386822 188.592,32.624 C188.592,29.5093178 187.717342,27.2053408 185.968,25.712 C184.218658,24.2186592 181.744016,23.472 178.544,23.472 L178.544,41.84 Z" id="ROUND" fill="#5B64CF" sketch:type="MSShapeGroup"></path>
        </g>
    </g>
</svg>